<?xml version="1.0" encoding="UTF-8"?>
<svg id="Capa_3" data-name="Capa 3" xmlns="http://www.w3.org/2000/svg" xmlns:xlink="http://www.w3.org/1999/xlink" viewBox="0 0 550.48 313.22">
  <defs>
    <style>
      .cls-1 {
        fill: url(#Degradado_sin_nombre_221-2);
      }

      .cls-1, .cls-2, .cls-3, .cls-4 {
        stroke-width: 0px;
      }

      .cls-2 {
        fill: #fff;
      }

      .cls-3 {
        fill: url(#Degradado_sin_nombre_221);
      }

      .cls-4 {
        fill: url(#Degradado_sin_nombre_224);
      }
    </style>
    <linearGradient id="Degradado_sin_nombre_221" data-name="Degradado sin nombre 221" x1="32.48" y1="172.1" x2="71.12" y2="172.1" gradientUnits="userSpaceOnUse">
      <stop offset="0" stop-color="#00ff97"/>
      <stop offset="1" stop-color="#008ad4"/>
    </linearGradient>
    <linearGradient id="Degradado_sin_nombre_221-2" data-name="Degradado sin nombre 221" x1="18.51" y1="256.92" x2="494.43" y2="256.92" xlink:href="#Degradado_sin_nombre_221"/>
    <linearGradient id="Degradado_sin_nombre_224" data-name="Degradado sin nombre 224" x1="553.83" y1="56.44" x2="77.91" y2="56.44" gradientUnits="userSpaceOnUse">
      <stop offset="0" stop-color="#008ad4"/>
      <stop offset="1" stop-color="#00ff97"/>
    </linearGradient>
  </defs>
  <path class="cls-2" d="M14.24,186.26c-1.24,1.53-2.77,2.3-4.59,2.3-1.65,0-3.06-.6-4.22-1.79-1.16-1.19-1.74-2.64-1.74-4.35,0-1.53.41-2.77,1.24-3.71l30.13-41.82c1.4-1.96,3.27-3.56,5.58-4.8,2.31-1.23,4.79-1.85,7.44-1.85,2.48,0,4.84.55,7.07,1.66,2.23,1.11,4.05,2.64,5.46,4.6l30.13,41.56c.5.6.91,1.26,1.24,1.98.33.72.5,1.51.5,2.37,0,1.71-.58,3.16-1.74,4.35-1.16,1.2-2.56,1.79-4.22,1.79-1.98,0-3.56-.81-4.71-2.43l-28.89-39.77c-.58-.68-1.3-1.43-2.17-2.24-.87-.81-1.76-1.21-2.67-1.21s-1.8.41-2.67,1.21c-.87.81-1.55,1.56-2.05,2.24l-29.14,39.9Z"/>
  <path class="cls-2" d="M209.52,182.42c0,1.71-.58,3.16-1.74,4.35-1.16,1.2-2.56,1.79-4.22,1.79s-3.06-.6-4.22-1.79c-1.16-1.19-1.74-2.64-1.74-4.35v-27.88c0-3.5-.21-5.24-.62-5.24-.33,0-1.49,1.15-3.47,3.45l-27.28,31.97c-1.08,1.28-2.4,2.24-3.97,2.88-1.57.64-3.27.96-5.08.96s-3.51-.32-5.08-.96c-1.57-.64-2.89-1.6-3.97-2.88l-27.28-31.97c-1.9-2.3-3.06-3.45-3.47-3.45s-.62,1.75-.62,5.24v27.88c0,1.71-.58,3.16-1.74,4.35-1.16,1.2-2.56,1.79-4.22,1.79s-3.06-.6-4.22-1.79c-1.16-1.19-1.74-2.64-1.74-4.35v-37.34c0-3.41.95-6.31,2.85-8.7,1.9-2.39,4.5-3.58,7.81-3.58,1.98,0,3.76.51,5.33,1.53,1.57,1.02,3.02,2.26,4.34,3.71l28.52,33.5c.41.43.93.88,1.55,1.34.62.47,1.26.7,1.92.7s1.3-.23,1.92-.7c.62-.47,1.14-.92,1.55-1.34l28.4-33.5h.12c1.16-1.62,2.56-2.9,4.22-3.84,1.65-.94,3.47-1.41,5.46-1.41,3.31,0,5.91,1.19,7.81,3.58,1.9,2.39,2.85,5.29,2.85,8.7v37.34Z"/>
  <path class="cls-2" d="M231.96,165.48c-1.98-.89-3.72-2.11-5.21-3.64-1.49-1.53-2.67-3.33-3.53-5.37s-1.3-4.26-1.3-6.65.43-4.6,1.3-6.65c.87-2.05,2.05-3.84,3.53-5.37,1.49-1.54,3.22-2.75,5.21-3.64,1.98-.9,4.13-1.34,6.45-1.34h75.27c1.65,0,3.06.6,4.22,1.79,1.16,1.19,1.74,2.64,1.74,4.35s-.58,3.16-1.74,4.35c-1.16,1.19-2.56,1.79-4.22,1.79h-75.52c-1.24,0-2.34.45-3.29,1.34-.95.89-1.43,2.03-1.43,3.39,0,1.28.47,2.39,1.43,3.33.95.94,2.05,1.41,3.29,1.41h68.57c2.31,0,4.48.45,6.51,1.34,2.02.9,3.78,2.11,5.27,3.64s2.67,3.35,3.53,5.43c.87,2.09,1.3,4.33,1.3,6.71s-.43,4.6-1.3,6.65-2.05,3.84-3.53,5.37c-1.49,1.53-3.25,2.73-5.27,3.58-2.03.85-4.2,1.28-6.51,1.28h-75.14c-1.65,0-3.06-.6-4.22-1.79-1.16-1.19-1.74-2.64-1.74-4.35s.58-3.15,1.74-4.35c1.16-1.19,2.56-1.79,4.22-1.79h75.64c1.24,0,2.31-.45,3.22-1.34.91-.9,1.36-1.98,1.36-3.26,0-1.36-.46-2.51-1.36-3.45-.91-.94-1.98-1.41-3.22-1.41h-68.82c-2.32,0-4.46-.45-6.45-1.34Z"/>
  <path class="cls-2" d="M335.75,138.94c0-1.7.58-3.15,1.74-4.35,1.16-1.19,2.56-1.79,4.22-1.79h87.92c1.65,0,3.06.6,4.22,1.79,1.16,1.19,1.74,2.64,1.74,4.35s-.58,3.16-1.74,4.35c-1.16,1.19-2.56,1.79-4.22,1.79h-87.92c-1.66,0-3.06-.6-4.22-1.79-1.16-1.19-1.74-2.64-1.74-4.35ZM350.87,188.56c-1.82,0-3.64-.4-5.46-1.21-1.82-.81-3.43-1.94-4.84-3.39-1.41-1.45-2.56-3.2-3.47-5.24-.91-2.05-1.36-4.35-1.36-6.91v-11.51c0-2.3.64-3.84,1.92-4.6,1.28-.77,3.29-1.15,6.01-1.15h83.2c1.65,0,3.06.6,4.22,1.79,1.16,1.2,1.74,2.64,1.74,4.35s-.58,3.15-1.74,4.35c-1.16,1.19-2.56,1.79-4.22,1.79h-79.24v6.27c0,.85.35,1.6,1.05,2.24.7.64,1.63.96,2.79.96h78.12c1.65,0,3.06.6,4.22,1.79,1.16,1.19,1.74,2.64,1.74,4.35s-.58,3.16-1.74,4.35c-1.16,1.2-2.56,1.79-4.22,1.79h-78.74Z"/>
  <path class="cls-2" d="M534.52,171.49c2.31,1.66,4.67,3.47,7.07,5.43.91.68,1.69,1.47,2.36,2.37.66.89.99,1.94.99,3.13,0,1.71-.58,3.16-1.74,4.35-1.16,1.2-2.56,1.79-4.22,1.79-1.41,0-2.81-.6-4.22-1.79-3.39-2.56-6.86-5.03-10.42-7.42-3.56-2.39-7.25-4.52-11.1-6.39-3.84-1.87-7.83-3.37-11.97-4.48-4.13-1.11-8.43-1.66-12.9-1.66h-24.68c-1.08.17-1.98.68-2.73,1.54-.74.85-1.12,1.92-1.12,3.2v10.87c0,1.71-.6,3.16-1.8,4.35-1.2,1.2-2.58,1.79-4.15,1.79-1.66,0-3.06-.6-4.22-1.79-1.16-1.19-1.74-2.64-1.74-4.35v-12.28c0-2.13.39-4.16,1.18-6.07.79-1.92,1.84-3.58,3.16-4.99,1.32-1.41,2.89-2.51,4.71-3.33,1.82-.81,3.8-1.21,5.95-1.21h65.72c1.24,0,2.33-.45,3.29-1.34.95-.9,1.43-2.02,1.43-3.39,0-1.28-.48-2.39-1.43-3.33-.95-.94-2.05-1.41-3.29-1.41h-74.77c-1.66,0-3.06-.6-4.22-1.79-1.16-1.19-1.74-2.64-1.74-4.35s.58-3.15,1.74-4.35c1.16-1.19,2.56-1.79,4.22-1.79h74.28c2.31,0,4.48.45,6.51,1.34,2.02.89,3.8,2.11,5.33,3.64,1.53,1.53,2.73,3.32,3.6,5.37.87,2.05,1.3,4.26,1.3,6.65s-.43,4.6-1.3,6.65-2.07,3.84-3.6,5.37c-1.53,1.54-3.31,2.75-5.33,3.64-2.03.9-4.2,1.34-6.51,1.34h-.5c2.23,1.45,4.5,3.01,6.82,4.67Z"/>
  <path class="cls-3" d="M63.85,172.1c-11.31-2.45-13.3-4.44-15.76-15.76-2.45,11.31-4.44,13.3-15.76,15.76,11.31,2.45,13.3,4.44,15.76,15.76,2.45-11.31,4.44-13.3,15.76-15.76Z"/>
  <path class="cls-1" d="M486.69,203.54c-8.33,7.16-17.13,13.75-26.19,19.99-9.05,6.25-18.41,12.08-27.94,17.63-9.55,5.51-19.31,10.67-29.24,15.51-4.94,2.48-9.97,4.74-15,7.03-5.05,2.22-10.1,4.5-15.23,6.54-40.89,16.78-83.86,28.89-127.94,35.32-22.04,3.18-44.36,4.94-66.81,4.71-11.22-.1-22.47-.71-33.7-1.97-5.61-.62-11.22-1.39-16.82-2.34-5.59-.97-11.16-2.14-16.71-3.49-5.55-1.33-11.05-2.96-16.5-4.81-5.44-1.85-10.84-3.93-16.1-6.43-5.25-2.48-10.43-5.23-15.34-8.48-4.91-3.25-9.62-6.9-13.89-11.06-4.26-4.16-8.08-8.87-11.14-14.03-3.07-5.15-5.28-10.8-6.54-16.55-1.26-5.76-1.45-11.64-.79-17.27.69-5.64,2.19-11.06,4.38-16.1-.57,5.46-.66,10.88.01,16.1.64,5.22,2.03,10.22,4.1,14.81,4.18,9.19,10.99,16.56,19.13,22.13,4.06,2.81,8.4,5.24,12.96,7.32,4.55,2.08,9.26,3.9,14.11,5.41,4.85,1.5,9.78,2.82,14.8,3.9,5.01,1.09,10.1,1.92,15.2,2.7,5.11.75,10.26,1.33,15.45,1.73,5.18.43,10.37.81,15.59.98,10.44.35,20.92.33,31.42-.06,21-.76,42.05-2.88,63-5.88,20.96-3.05,41.84-6.99,62.59-11.72,10.37-2.38,20.73-4.91,31.05-7.6l7.73-2.08c2.57-.72,5.13-1.47,7.71-2.16,2.58-.68,5.14-1.46,7.71-2.19,2.57-.73,5.14-1.48,7.69-2.28l7.68-2.33,7.67-2.38c5.09-1.66,10.19-3.3,15.28-5.01,5.11-1.66,10.14-3.5,15.22-5.25l7.6-2.71c2.52-.93,5.03-1.9,7.57-2.81,10.1-3.76,20.13-7.75,30.16-11.87,10.02-4.14,19.99-8.5,30.04-12.93Z"/>
  <path class="cls-4" d="M85.66,109.82c8.33-7.16,17.13-13.75,26.19-19.99,9.05-6.25,18.41-12.08,27.94-17.63,9.55-5.51,19.31-10.67,29.24-15.51,4.94-2.48,9.97-4.74,15-7.03,5.05-2.22,10.1-4.5,15.23-6.54,40.89-16.78,83.86-28.89,127.94-35.32,22.04-3.18,44.36-4.94,66.81-4.71,11.22.1,22.47.71,33.7,1.97,5.61.62,11.22,1.39,16.82,2.34,5.59.97,11.16,2.14,16.71,3.49,5.55,1.33,11.05,2.96,16.5,4.81,5.44,1.85,10.84,3.93,16.1,6.43,5.25,2.48,10.43,5.23,15.34,8.48,4.91,3.25,9.62,6.89,13.89,11.06,4.26,4.16,8.08,8.87,11.14,14.03,3.07,5.15,5.28,10.8,6.54,16.55,1.26,5.76,1.45,11.64.79,17.27-.69,5.64-2.19,11.06-4.38,16.1.57-5.46.66-10.88-.01-16.1-.64-5.22-2.03-10.22-4.1-14.81-4.18-9.19-10.99-16.56-19.14-22.13-4.06-2.81-8.4-5.24-12.96-7.32-4.55-2.08-9.26-3.9-14.11-5.41-4.85-1.5-9.78-2.82-14.8-3.9-5.01-1.09-10.1-1.92-15.2-2.7-5.11-.75-10.26-1.33-15.45-1.73-5.18-.43-10.37-.81-15.59-.98-10.44-.35-20.92-.33-31.42.06-21,.76-42.05,2.88-63,5.88-20.96,3.05-41.84,6.99-62.59,11.72-10.37,2.38-20.73,4.91-31.05,7.6l-7.73,2.08c-2.57.72-5.13,1.47-7.71,2.16-2.58.68-5.14,1.46-7.71,2.19-2.57.73-5.14,1.48-7.69,2.28l-7.68,2.33-7.67,2.38c-5.09,1.66-10.19,3.3-15.28,5.01-5.11,1.66-10.14,3.5-15.22,5.25l-7.6,2.71c-2.52.93-5.03,1.9-7.57,2.81-10.1,3.76-20.13,7.75-30.16,11.87-10.02,4.14-19.99,8.5-30.04,12.93Z"/>
</svg>